<svg width="50" height="24" viewBox="0 0 50 24" fill="none" xmlns="http://www.w3.org/2000/svg">
<rect width="50" height="24" rx="12" fill="#E7F9E7"/>
<rect x="0.5" y="0.5" width="49" height="23" rx="11.5" stroke="#11BF0E" stroke-opacity="0.1"/>
<path d="M17.0031 9.02732C16.7247 8.7338 16.2606 8.72087 15.9667 8.99994L11.2863 13.4386L9.05392 11.1466C8.77118 10.8565 8.30759 10.8501 8.01726 11.1329C7.72717 11.4154 7.72106 11.8795 8.00355 12.1696L10.7406 14.9797C10.8841 15.1271 11.0747 15.2013 11.2658 15.2013C11.4471 15.2013 11.6285 15.1344 11.7705 15.0002L16.9757 10.0638C17.2695 9.78515 17.2819 9.32108 17.0031 9.02732Z" fill="#11BF0E"/>
<path d="M17.0031 9.02732C16.7247 8.7338 16.2606 8.72087 15.9667 8.99994L11.2863 13.4386L9.05392 11.1466C8.77118 10.8565 8.30759 10.8501 8.01726 11.1329C7.72717 11.4154 7.72106 11.8795 8.00355 12.1696L10.7406 14.9797C10.8841 15.1271 11.0747 15.2013 11.2658 15.2013C11.4471 15.2013 11.6285 15.1344 11.7705 15.0002L16.9757 10.0638C17.2695 9.78515 17.2819 9.32108 17.0031 9.02732Z" fill="black" fill-opacity="0.04"/>
<path d="M21.9727 15V9.18182H24.2682C24.7095 9.18182 25.0854 9.2661 25.396 9.43466C25.7066 9.60133 25.9434 9.83333 26.1062 10.1307C26.271 10.4261 26.3534 10.767 26.3534 11.1534C26.3534 11.5398 26.2701 11.8807 26.1034 12.1761C25.9367 12.4716 25.6953 12.7017 25.379 12.8665C25.0646 13.0312 24.6839 13.1136 24.2369 13.1136H22.7739V12.1278H24.0381C24.2748 12.1278 24.4699 12.0871 24.6233 12.0057C24.7786 11.9223 24.8941 11.8078 24.9699 11.6619C25.0475 11.5142 25.0864 11.3447 25.0864 11.1534C25.0864 10.9602 25.0475 10.7917 24.9699 10.6477C24.8941 10.5019 24.7786 10.3892 24.6233 10.3097C24.468 10.2282 24.271 10.1875 24.0324 10.1875H23.2028V15H21.9727ZM28.1234 15H26.8052L28.8137 9.18182H30.3989L32.4046 15H31.0864L29.629 10.5114H29.5836L28.1234 15ZM28.041 12.7131H31.1546V13.6733H28.041V12.7131ZM34.975 9.18182V15H33.7449V9.18182H34.975ZM38.6896 15H36.6271V9.18182H38.7066C39.2919 9.18182 39.7957 9.2983 40.218 9.53125C40.6403 9.76231 40.9652 10.0947 41.1924 10.5284C41.4216 10.9621 41.5362 11.4811 41.5362 12.0852C41.5362 12.6913 41.4216 13.2121 41.1924 13.6477C40.9652 14.0833 40.6385 14.4176 40.2123 14.6506C39.7881 14.8835 39.2805 15 38.6896 15ZM37.8572 13.946H38.6385C39.0021 13.946 39.308 13.8816 39.5561 13.7528C39.8061 13.6222 39.9936 13.4205 40.1186 13.1477C40.2455 12.8731 40.3089 12.5189 40.3089 12.0852C40.3089 11.6553 40.2455 11.304 40.1186 11.0312C39.9936 10.7585 39.807 10.5578 39.5589 10.429C39.3108 10.3002 39.0049 10.2358 38.6413 10.2358H37.8572V13.946Z" fill="#11BF0E"/>
<path d="M21.9727 15V9.18182H24.2682C24.7095 9.18182 25.0854 9.2661 25.396 9.43466C25.7066 9.60133 25.9434 9.83333 26.1062 10.1307C26.271 10.4261 26.3534 10.767 26.3534 11.1534C26.3534 11.5398 26.2701 11.8807 26.1034 12.1761C25.9367 12.4716 25.6953 12.7017 25.379 12.8665C25.0646 13.0312 24.6839 13.1136 24.2369 13.1136H22.7739V12.1278H24.0381C24.2748 12.1278 24.4699 12.0871 24.6233 12.0057C24.7786 11.9223 24.8941 11.8078 24.9699 11.6619C25.0475 11.5142 25.0864 11.3447 25.0864 11.1534C25.0864 10.9602 25.0475 10.7917 24.9699 10.6477C24.8941 10.5019 24.7786 10.3892 24.6233 10.3097C24.468 10.2282 24.271 10.1875 24.0324 10.1875H23.2028V15H21.9727ZM28.1234 15H26.8052L28.8137 9.18182H30.3989L32.4046 15H31.0864L29.629 10.5114H29.5836L28.1234 15ZM28.041 12.7131H31.1546V13.6733H28.041V12.7131ZM34.975 9.18182V15H33.7449V9.18182H34.975ZM38.6896 15H36.6271V9.18182H38.7066C39.2919 9.18182 39.7957 9.2983 40.218 9.53125C40.6403 9.76231 40.9652 10.0947 41.1924 10.5284C41.4216 10.9621 41.5362 11.4811 41.5362 12.0852C41.5362 12.6913 41.4216 13.2121 41.1924 13.6477C40.9652 14.0833 40.6385 14.4176 40.2123 14.6506C39.7881 14.8835 39.2805 15 38.6896 15ZM37.8572 13.946H38.6385C39.0021 13.946 39.308 13.8816 39.5561 13.7528C39.8061 13.6222 39.9936 13.4205 40.1186 13.1477C40.2455 12.8731 40.3089 12.5189 40.3089 12.0852C40.3089 11.6553 40.2455 11.304 40.1186 11.0312C39.9936 10.7585 39.807 10.5578 39.5589 10.429C39.3108 10.3002 39.0049 10.2358 38.6413 10.2358H37.8572V13.946Z" fill="black" fill-opacity="0.04"/>
</svg>
